<svg width="544" height="55" viewBox="0 0 544 53" fill="none" xmlns="http://www.w3.org/2000/svg">
<path d="M51.848 7.072V52H40.904V25.056L30.856 52H22.024L11.912 24.992V52H0.968V7.072H13.896L26.504 38.176L38.984 7.072H51.848ZM57.542 34.08C57.542 30.4107 58.2247 27.1893 59.59 24.416C60.998 21.6427 62.8967 19.5093 65.286 18.016C67.6753 16.5227 70.342 15.776 73.286 15.776C75.8033 15.776 78.0007 16.288 79.878 17.312C81.798 18.336 83.27 19.68 84.294 21.344V16.288H95.238V52H84.294V46.944C83.2273 48.608 81.734 49.952 79.814 50.976C77.9367 52 75.7393 52.512 73.222 52.512C70.3207 52.512 67.6753 51.7653 65.286 50.272C62.8967 48.736 60.998 46.5813 59.59 43.808C58.2247 40.992 57.542 37.7493 57.542 34.08ZM84.294 34.144C84.294 31.4133 83.526 29.2587 81.99 27.68C80.4967 26.1013 78.662 25.312 76.486 25.312C74.31 25.312 72.454 26.1013 70.918 27.68C69.4247 29.216 68.678 31.3493 68.678 34.08C68.678 36.8107 69.4247 38.9867 70.918 40.608C72.454 42.1867 74.31 42.976 76.486 42.976C78.662 42.976 80.4967 42.1867 81.99 40.608C83.526 39.0293 84.294 36.8747 84.294 34.144ZM114.1 22.24C115.38 20.2773 116.98 18.7413 118.9 17.632C120.82 16.48 122.953 15.904 125.3 15.904V27.488H122.292C119.561 27.488 117.513 28.0853 116.148 29.28C114.782 30.432 114.1 32.48 114.1 35.424V52H103.156V16.288H114.1V22.24ZM128.355 34.144C128.355 30.432 129.101 27.1893 130.595 24.416C132.131 21.6427 134.243 19.5093 136.931 18.016C139.661 16.5227 142.776 15.776 146.275 15.776C150.755 15.776 154.488 16.9493 157.475 19.296C160.504 21.6427 162.488 24.9493 163.427 29.216H151.779C150.797 26.4853 148.899 25.12 146.083 25.12C144.077 25.12 142.477 25.9093 141.283 27.488C140.088 29.024 139.491 31.2427 139.491 34.144C139.491 37.0453 140.088 39.2853 141.283 40.864C142.477 42.4 144.077 43.168 146.083 43.168C148.899 43.168 150.797 41.8027 151.779 39.072H163.427C162.488 43.2533 160.504 46.5387 157.475 48.928C154.445 51.3173 150.712 52.512 146.275 52.512C142.776 52.512 139.661 51.7653 136.931 50.272C134.243 48.7787 132.131 46.6453 130.595 43.872C129.101 41.0987 128.355 37.856 128.355 34.144ZM202.944 33.568C202.944 34.592 202.881 35.6587 202.753 36.768H177.985C178.155 38.9867 178.859 40.6933 180.097 41.888C181.377 43.04 182.934 43.616 184.769 43.616C187.499 43.616 189.398 42.464 190.465 40.16H202.113C201.515 42.5067 200.427 44.6187 198.849 46.496C197.313 48.3733 195.371 49.8453 193.025 50.912C190.678 51.9787 188.054 52.512 185.153 52.512C181.654 52.512 178.539 51.7653 175.809 50.272C173.078 48.7787 170.945 46.6453 169.409 43.872C167.873 41.0987 167.105 37.856 167.105 34.144C167.105 30.432 167.851 27.1893 169.345 24.416C170.881 21.6427 173.014 19.5093 175.745 18.016C178.475 16.5227 181.611 15.776 185.153 15.776C188.609 15.776 191.681 16.5013 194.369 17.952C197.057 19.4027 199.147 21.472 200.641 24.16C202.177 26.848 202.944 29.984 202.944 33.568ZM191.745 30.688C191.745 28.8107 191.105 27.3173 189.825 26.208C188.545 25.0987 186.945 24.544 185.025 24.544C183.19 24.544 181.633 25.0773 180.353 26.144C179.115 27.2107 178.347 28.7253 178.049 30.688H191.745ZM219.662 4.64V52H208.718V4.64H219.662ZM243.849 52.512C240.35 52.512 237.193 51.7653 234.377 50.272C231.604 48.7787 229.406 46.6453 227.785 43.872C226.206 41.0987 225.417 37.856 225.417 34.144C225.417 30.4747 226.228 27.2533 227.849 24.48C229.47 21.664 231.689 19.5093 234.505 18.016C237.321 16.5227 240.478 15.776 243.977 15.776C247.476 15.776 250.633 16.5227 253.449 18.016C256.265 19.5093 258.484 21.664 260.105 24.48C261.726 27.2533 262.537 30.4747 262.537 34.144C262.537 37.8133 261.705 41.056 260.041 43.872C258.42 46.6453 256.18 48.7787 253.321 50.272C250.505 51.7653 247.348 52.512 243.849 52.512ZM243.849 43.04C245.94 43.04 247.71 42.272 249.161 40.736C250.654 39.2 251.401 37.0027 251.401 34.144C251.401 31.2853 250.676 29.088 249.225 27.552C247.817 26.016 246.068 25.248 243.977 25.248C241.844 25.248 240.073 26.016 238.665 27.552C237.257 29.0453 236.553 31.2427 236.553 34.144C236.553 37.0027 237.236 39.2 238.601 40.736C240.009 42.272 241.758 43.04 243.849 43.04ZM309.106 28.96C311.708 29.5147 313.799 30.816 315.378 32.864C316.956 34.8693 317.746 37.1733 317.746 39.776C317.746 43.5307 316.423 46.5173 313.778 48.736C311.175 50.912 307.527 52 302.834 52H281.906V7.072H302.13C306.695 7.072 310.258 8.11733 312.818 10.208C315.42 12.2987 316.722 15.136 316.722 18.72C316.722 21.3653 316.018 23.5627 314.61 25.312C313.244 27.0613 311.41 28.2773 309.106 28.96ZM292.85 25.248H300.018C301.81 25.248 303.175 24.864 304.114 24.096C305.095 23.2853 305.586 22.112 305.586 20.576C305.586 19.04 305.095 17.8667 304.114 17.056C303.175 16.2453 301.81 15.84 300.018 15.84H292.85V25.248ZM300.914 43.168C302.748 43.168 304.156 42.7627 305.138 41.952C306.162 41.0987 306.674 39.8827 306.674 38.304C306.674 36.7253 306.14 35.488 305.074 34.592C304.05 33.696 302.62 33.248 300.786 33.248H292.85V43.168H300.914ZM321.917 34.08C321.917 30.4107 322.6 27.1893 323.965 24.416C325.373 21.6427 327.272 19.5093 329.661 18.016C332.05 16.5227 334.717 15.776 337.661 15.776C340.178 15.776 342.376 16.288 344.253 17.312C346.173 18.336 347.645 19.68 348.669 21.344V16.288H359.613V52H348.669V46.944C347.602 48.608 346.109 49.952 344.189 50.976C342.312 52 340.114 52.512 337.597 52.512C334.696 52.512 332.05 51.7653 329.661 50.272C327.272 48.736 325.373 46.5813 323.965 43.808C322.6 40.992 321.917 37.7493 321.917 34.08ZM348.669 34.144C348.669 31.4133 347.901 29.2587 346.365 27.68C344.872 26.1013 343.037 25.312 340.861 25.312C338.685 25.312 336.829 26.1013 335.293 27.68C333.8 29.216 333.053 31.3493 333.053 34.08C333.053 36.8107 333.8 38.9867 335.293 40.608C336.829 42.1867 338.685 42.976 340.861 42.976C343.037 42.976 344.872 42.1867 346.365 40.608C347.901 39.0293 348.669 36.8747 348.669 34.144ZM378.475 22.24C379.755 20.2773 381.355 18.7413 383.275 17.632C385.195 16.48 387.328 15.904 389.675 15.904V27.488H386.667C383.936 27.488 381.888 28.0853 380.523 29.28C379.157 30.432 378.475 32.48 378.475 35.424V52H367.531V16.288H378.475V22.24ZM405.85 22.24C407.13 20.2773 408.73 18.7413 410.65 17.632C412.57 16.48 414.703 15.904 417.05 15.904V27.488H414.042C411.311 27.488 409.263 28.0853 407.898 29.28C406.532 30.432 405.85 32.48 405.85 35.424V52H394.906V16.288H405.85V22.24ZM455.944 33.568C455.944 34.592 455.881 35.6587 455.753 36.768H430.985C431.155 38.9867 431.859 40.6933 433.097 41.888C434.377 43.04 435.934 43.616 437.769 43.616C440.499 43.616 442.398 42.464 443.465 40.16H455.113C454.515 42.5067 453.427 44.6187 451.849 46.496C450.313 48.3733 448.371 49.8453 446.025 50.912C443.678 51.9787 441.054 52.512 438.153 52.512C434.654 52.512 431.539 51.7653 428.809 50.272C426.078 48.7787 423.945 46.6453 422.409 43.872C420.873 41.0987 420.105 37.856 420.105 34.144C420.105 30.432 420.851 27.1893 422.345 24.416C423.881 21.6427 426.014 19.5093 428.745 18.016C431.475 16.5227 434.611 15.776 438.153 15.776C441.609 15.776 444.681 16.5013 447.369 17.952C450.057 19.4027 452.147 21.472 453.641 24.16C455.177 26.848 455.944 29.984 455.944 33.568ZM444.745 30.688C444.745 28.8107 444.105 27.3173 442.825 26.208C441.545 25.0987 439.945 24.544 438.025 24.544C436.19 24.544 434.633 25.0773 433.353 26.144C432.115 27.2107 431.347 28.7253 431.049 30.688H444.745ZM467.222 12.576C465.302 12.576 463.723 12.0213 462.486 10.912C461.291 9.76 460.694 8.352 460.694 6.688C460.694 4.98133 461.291 3.57333 462.486 2.464C463.723 1.312 465.302 0.735996 467.222 0.735996C469.099 0.735996 470.635 1.312 471.83 2.464C473.067 3.57333 473.686 4.98133 473.686 6.688C473.686 8.352 473.067 9.76 471.83 10.912C470.635 12.0213 469.099 12.576 467.222 12.576ZM472.662 16.288V52H461.718V16.288H472.662ZM491.537 22.24C492.817 20.2773 494.417 18.7413 496.337 17.632C498.257 16.48 500.39 15.904 502.737 15.904V27.488H499.729C496.998 27.488 494.95 28.0853 493.585 29.28C492.22 30.432 491.537 32.48 491.537 35.424V52H480.593V16.288H491.537V22.24ZM505.792 34.08C505.792 30.4107 506.475 27.1893 507.84 24.416C509.248 21.6427 511.147 19.5093 513.536 18.016C515.925 16.5227 518.592 15.776 521.536 15.776C524.053 15.776 526.251 16.288 528.128 17.312C530.048 18.336 531.52 19.68 532.544 21.344V16.288H543.488V52H532.544V46.944C531.477 48.608 529.984 49.952 528.064 50.976C526.187 52 523.989 52.512 521.472 52.512C518.571 52.512 515.925 51.7653 513.536 50.272C511.147 48.736 509.248 46.5813 507.84 43.808C506.475 40.992 505.792 37.7493 505.792 34.08ZM532.544 34.144C532.544 31.4133 531.776 29.2587 530.24 27.68C528.747 26.1013 526.912 25.312 524.736 25.312C522.56 25.312 520.704 26.1013 519.168 27.68C517.675 29.216 516.928 31.3493 516.928 34.08C516.928 36.8107 517.675 38.9867 519.168 40.608C520.704 42.1867 522.56 42.976 524.736 42.976C526.912 42.976 528.747 42.1867 530.24 40.608C531.776 39.0293 532.544 36.8747 532.544 34.144Z" fill="#5C677A"/>
</svg>
